# Tiled2Unity generated file. Do not modify by hand.
# Wavefront file for 'OutsideDungeon_mesh_0005.obj'

# Vertices (Count = 60)
v -8.32 -5.76 0
v -8.639999 -5.76 0
v -8.639999 -5.44 0
v -8.32 -5.44 0
v -7.04 -6.08 0
v -7.36 -6.08 0
v -7.36 -5.76 0
v -7.04 -5.76 0
v -0.64 -7.04 0
v -0.96 -7.04 0
v -0.96 -6.72 0
v -0.64 -6.72 0
v -0.96 -7.04 0
v -1.28 -7.04 0
v -1.28 -6.72 0
v -0.96 -6.72 0
v -1.28 -7.04 0
v -1.6 -7.04 0
v -1.6 -6.72 0
v -1.28 -6.72 0
v -2.24 -7.04 0
v -2.56 -7.04 0
v -2.56 -6.72 0
v -2.24 -6.72 0
v -0.64 -7.36 0
v -0.96 -7.36 0
v -0.96 -7.04 0
v -0.64 -7.04 0
v -0.96 -7.36 0
v -1.28 -7.36 0
v -1.28 -7.04 0
v -0.96 -7.04 0
v -1.28 -7.36 0
v -1.6 -7.36 0
v -1.6 -7.04 0
v -1.28 -7.04 0
v -1.92 -7.36 0
v -2.24 -7.36 0
v -2.24 -7.04 0
v -1.92 -7.04 0
v -2.24 -7.36 0
v -2.56 -7.36 0
v -2.56 -7.04 0
v -2.24 -7.04 0
v -0.64 -7.68 0
v -0.96 -7.68 0
v -0.96 -7.36 0
v -0.64 -7.36 0
v -0.96 -7.68 0
v -1.28 -7.68 0
v -1.28 -7.36 0
v -0.96 -7.36 0
v -1.28 -7.68 0
v -1.6 -7.68 0
v -1.6 -7.36 0
v -1.28 -7.36 0
v -1.6 -7.68 0
v -1.92 -7.68 0
v -1.92 -7.36 0
v -1.6 -7.36 0

# Texture cooridinates (Count = 24)
vt 0.5 0.75
vt 0.4375 0.75
vt 0.4375 0.6875
vt 0.5 0.6875
vt 0 0.75
vt 0.0625 0.75
vt 0.0625 0.8125
vt 0 0.8125
vt 0.1875 0.0625
vt 0.25 0.0625
vt 0.25 0.125
vt 0.1875 0.125
vt 0.3125 0.0625
vt 0.3125 0.125
vt 0.375 0.0625
vt 0.375 0.125
vt 0 0.1875
vt 0.0625 0.1875
vt 0.0625 0.25
vt 0 0.25
vt 0.1875 0
vt 0.25 0
vt 0.3125 0
vt 0.375 0

# Normal
vn 0 0 -1

# Mesh description
g OutsideDungeon_mesh_0005

# Faces
f 1/1/1 2/2/1 3/3/1 4/4/1
f 5/5/1 6/6/1 7/7/1 8/8/1
f 9/9/1 10/10/1 11/11/1 12/12/1
f 13/10/1 14/13/1 15/14/1 16/11/1
f 17/13/1 18/15/1 19/16/1 20/14/1
f 21/17/1 22/18/1 23/19/1 24/20/1
f 25/21/1 26/22/1 27/10/1 28/9/1
f 29/22/1 30/23/1 31/13/1 32/10/1
f 33/23/1 34/24/1 35/15/1 36/13/1
f 37/17/1 38/18/1 39/19/1 40/20/1
f 41/17/1 42/18/1 43/19/1 44/20/1
f 45/17/1 46/18/1 47/19/1 48/20/1
f 49/17/1 50/18/1 51/19/1 52/20/1
f 53/17/1 54/18/1 55/19/1 56/20/1
f 57/17/1 58/18/1 59/19/1 60/20/1

