# Tiled2Unity generated file. Do not modify by hand.
# Wavefront file for 'OutsideDungeon_mesh_0001.obj'

# Vertices (Count = 72)
v -6.72 -5.44 0
v -7.04 -5.44 0
v -7.04 -5.12 0
v -6.72 -5.12 0
v -7.04 -5.44 0
v -7.36 -5.44 0
v -7.36 -5.12 0
v -7.04 -5.12 0
v -7.36 -5.44 0
v -7.68 -5.44 0
v -7.68 -5.12 0
v -7.36 -5.12 0
v -7.68 -5.44 0
v -8 -5.44 0
v -8 -5.12 0
v -7.68 -5.12 0
v -8 -5.44 0
v -8.32 -5.44 0
v -8.32 -5.12 0
v -8 -5.12 0
v -8.32 -5.44 0
v -8.639999 -5.44 0
v -8.639999 -5.12 0
v -8.32 -5.12 0
v -8.639999 -5.44 0
v -8.96 -5.44 0
v -8.96 -5.12 0
v -8.639999 -5.12 0
v -8.96 -5.44 0
v -9.28 -5.44 0
v -9.28 -5.12 0
v -8.96 -5.12 0
v -9.28 -5.44 0
v -9.599999 -5.44 0
v -9.599999 -5.12 0
v -9.28 -5.12 0
v -6.72 -5.76 0
v -7.04 -5.76 0
v -7.04 -5.44 0
v -6.72 -5.44 0
v -7.04 -5.76 0
v -7.36 -5.76 0
v -7.36 -5.44 0
v -7.04 -5.44 0
v -7.36 -5.76 0
v -7.68 -5.76 0
v -7.68 -5.44 0
v -7.36 -5.44 0
v -7.68 -5.76 0
v -8 -5.76 0
v -8 -5.44 0
v -7.68 -5.44 0
v -8 -5.76 0
v -8.32 -5.76 0
v -8.32 -5.44 0
v -8 -5.44 0
v -8.32 -5.76 0
v -8.639999 -5.76 0
v -8.639999 -5.44 0
v -8.32 -5.44 0
v -8.639999 -5.76 0
v -8.96 -5.76 0
v -8.96 -5.44 0
v -8.639999 -5.44 0
v -8.96 -5.76 0
v -9.28 -5.76 0
v -9.28 -5.44 0
v -8.96 -5.44 0
v -9.28 -5.76 0
v -9.599999 -5.76 0
v -9.599999 -5.44 0
v -9.28 -5.44 0

# Texture cooridinates (Count = 4)
vt 0.4666667 0.9666666
vt 0.5 0.9666666
vt 0.5 1
vt 0.4666667 1

# Normal
vn 0 0 -1

# Mesh description
g OutsideDungeon_mesh_0001

# Faces
f 1/1/1 2/2/1 3/3/1 4/4/1
f 5/1/1 6/2/1 7/3/1 8/4/1
f 9/1/1 10/2/1 11/3/1 12/4/1
f 13/1/1 14/2/1 15/3/1 16/4/1
f 17/1/1 18/2/1 19/3/1 20/4/1
f 21/1/1 22/2/1 23/3/1 24/4/1
f 25/1/1 26/2/1 27/3/1 28/4/1
f 29/1/1 30/2/1 31/3/1 32/4/1
f 33/1/1 34/2/1 35/3/1 36/4/1
f 37/1/1 38/2/1 39/3/1 40/4/1
f 41/1/1 42/2/1 43/3/1 44/4/1
f 45/1/1 46/2/1 47/3/1 48/4/1
f 49/1/1 50/2/1 51/3/1 52/4/1
f 53/1/1 54/2/1 55/3/1 56/4/1
f 57/1/1 58/2/1 59/3/1 60/4/1
f 61/1/1 62/2/1 63/3/1 64/4/1
f 65/1/1 66/2/1 67/3/1 68/4/1
f 69/1/1 70/2/1 71/3/1 72/4/1

