# Tiled2Unity generated file. Do not modify by hand.
# Wavefront file for 'Dungeon_mesh_0023.obj'

# Vertices (Count = 112)
v -3.84 -6.08 0
v -4.16 -6.08 0
v -4.16 -5.76 0
v -3.84 -5.76 0
v -4.8 -6.08 0
v -5.12 -6.08 0
v -5.12 -5.76 0
v -4.8 -5.76 0
v -5.44 -6.08 0
v -5.76 -6.08 0
v -5.76 -5.76 0
v -5.44 -5.76 0
v -3.84 -6.72 0
v -4.16 -6.72 0
v -4.16 -6.4 0
v -3.84 -6.4 0
v -4.8 -6.72 0
v -5.12 -6.72 0
v -5.12 -6.4 0
v -4.8 -6.4 0
v -14.08 -6.72 0
v -14.4 -6.72 0
v -14.4 -6.4 0
v -14.08 -6.4 0
v -4.8 -7.04 0
v -5.12 -7.04 0
v -5.12 -6.72 0
v -4.8 -6.72 0
v -5.44 -7.04 0
v -5.76 -7.04 0
v -5.76 -6.72 0
v -5.44 -6.72 0
v -4.8 -7.36 0
v -5.12 -7.36 0
v -5.12 -7.04 0
v -4.8 -7.04 0
v -5.44 -7.36 0
v -5.76 -7.36 0
v -5.76 -7.04 0
v -5.44 -7.04 0
v -13.44 -7.36 0
v -13.76 -7.36 0
v -13.76 -7.04 0
v -13.44 -7.04 0
v -14.08 -7.36 0
v -14.4 -7.36 0
v -14.4 -7.04 0
v -14.08 -7.04 0
v -2.88 -7.68 0
v -3.2 -7.68 0
v -3.2 -7.36 0
v -2.88 -7.36 0
v -3.52 -7.68 0
v -3.84 -7.68 0
v -3.84 -7.36 0
v -3.52 -7.36 0
v -10.24 -9.599999 0
v -10.56 -9.599999 0
v -10.56 -9.28 0
v -10.24 -9.28 0
v -10.88 -9.599999 0
v -11.2 -9.599999 0
v -11.2 -9.28 0
v -10.88 -9.28 0
v -11.52 -9.599999 0
v -11.84 -9.599999 0
v -11.84 -9.28 0
v -11.52 -9.28 0
v -12.16 -9.599999 0
v -12.48 -9.599999 0
v -12.48 -9.28 0
v -12.16 -9.28 0
v -12.8 -9.599999 0
v -13.12 -9.599999 0
v -13.12 -9.28 0
v -12.8 -9.28 0
v -13.44 -9.599999 0
v -13.76 -9.599999 0
v -13.76 -9.28 0
v -13.44 -9.28 0
v -14.08 -9.599999 0
v -14.4 -9.599999 0
v -14.4 -9.28 0
v -14.08 -9.28 0
v -10.24 -10.24 0
v -10.56 -10.24 0
v -10.56 -9.92 0
v -10.24 -9.92 0
v -10.88 -10.24 0
v -11.2 -10.24 0
v -11.2 -9.92 0
v -10.88 -9.92 0
v -11.52 -10.24 0
v -11.84 -10.24 0
v -11.84 -9.92 0
v -11.52 -9.92 0
v -12.16 -10.24 0
v -12.48 -10.24 0
v -12.48 -9.92 0
v -12.16 -9.92 0
v -12.8 -10.24 0
v -13.12 -10.24 0
v -13.12 -9.92 0
v -12.8 -9.92 0
v -13.44 -10.24 0
v -13.76 -10.24 0
v -13.76 -9.92 0
v -13.44 -9.92 0
v -14.08 -10.24 0
v -14.4 -10.24 0
v -14.4 -9.92 0
v -14.08 -9.92 0

# Texture cooridinates (Count = 4)
vt 0 0
vt 1 0
vt 1 1
vt 0 1

# Normal
vn 0 0 -1

# Mesh description
g Dungeon_mesh_0023

# Faces
f 1/1/1 2/2/1 3/3/1 4/4/1
f 5/1/1 6/2/1 7/3/1 8/4/1
f 9/1/1 10/2/1 11/3/1 12/4/1
f 13/1/1 14/2/1 15/3/1 16/4/1
f 17/1/1 18/2/1 19/3/1 20/4/1
f 21/1/1 22/2/1 23/3/1 24/4/1
f 25/1/1 26/2/1 27/3/1 28/4/1
f 29/1/1 30/2/1 31/3/1 32/4/1
f 33/1/1 34/2/1 35/3/1 36/4/1
f 37/1/1 38/2/1 39/3/1 40/4/1
f 41/1/1 42/2/1 43/3/1 44/4/1
f 45/1/1 46/2/1 47/3/1 48/4/1
f 49/1/1 50/2/1 51/3/1 52/4/1
f 53/1/1 54/2/1 55/3/1 56/4/1
f 57/1/1 58/2/1 59/3/1 60/4/1
f 61/1/1 62/2/1 63/3/1 64/4/1
f 65/1/1 66/2/1 67/3/1 68/4/1
f 69/1/1 70/2/1 71/3/1 72/4/1
f 73/1/1 74/2/1 75/3/1 76/4/1
f 77/1/1 78/2/1 79/3/1 80/4/1
f 81/1/1 82/2/1 83/3/1 84/4/1
f 85/1/1 86/2/1 87/3/1 88/4/1
f 89/1/1 90/2/1 91/3/1 92/4/1
f 93/1/1 94/2/1 95/3/1 96/4/1
f 97/1/1 98/2/1 99/3/1 100/4/1
f 101/1/1 102/2/1 103/3/1 104/4/1
f 105/1/1 106/2/1 107/3/1 108/4/1
f 109/1/1 110/2/1 111/3/1 112/4/1

