# Tiled2Unity generated file. Do not modify by hand.
# Wavefront file for 'Dungeon_mesh_0002.obj'

# Vertices (Count = 80)
v -6.4 -1.92 0
v -6.72 -1.92 0
v -6.72 -1.6 0
v -6.4 -1.6 0
v -6.72 -1.92 0
v -7.04 -1.92 0
v -7.04 -1.6 0
v -6.72 -1.6 0
v -7.68 -3.2 0
v -8 -3.2 0
v -8 -2.88 0
v -7.68 -2.88 0
v -7.68 -3.52 0
v -8 -3.52 0
v -8 -3.2 0
v -7.68 -3.2 0
v -7.68 -5.76 0
v -8 -5.76 0
v -8 -5.44 0
v -7.68 -5.44 0
v -7.68 -6.08 0
v -8 -6.08 0
v -8 -5.76 0
v -7.68 -5.76 0
v -5.12 -8.32 0
v -5.44 -8.32 0
v -5.44 -8 0
v -5.12 -8 0
v -7.68 -8.32 0
v -8 -8.32 0
v -8 -8 0
v -7.68 -8 0
v -10.56 -8.32 0
v -10.88 -8.32 0
v -10.88 -8 0
v -10.56 -8 0
v -5.12 -8.639999 0
v -5.44 -8.639999 0
v -5.44 -8.32 0
v -5.12 -8.32 0
v -7.68 -8.639999 0
v -8 -8.639999 0
v -8 -8.32 0
v -7.68 -8.32 0
v -10.56 -8.639999 0
v -10.88 -8.639999 0
v -10.88 -8.32 0
v -10.56 -8.32 0
v -10.56 -11.2 0
v -10.88 -11.2 0
v -10.88 -10.88 0
v -10.56 -10.88 0
v -10.56 -11.52 0
v -10.88 -11.52 0
v -10.88 -11.2 0
v -10.56 -11.2 0
v -5.44 -12.48 0
v -5.76 -12.48 0
v -5.76 -12.16 0
v -5.44 -12.16 0
v -5.76 -12.48 0
v -6.08 -12.48 0
v -6.08 -12.16 0
v -5.76 -12.16 0
v -8.96 -12.48 0
v -9.28 -12.48 0
v -9.28 -12.16 0
v -8.96 -12.16 0
v -9.28 -12.48 0
v -9.599999 -12.48 0
v -9.599999 -12.16 0
v -9.28 -12.16 0
v -7.36 -13.76 0
v -7.68 -13.76 0
v -7.68 -13.44 0
v -7.36 -13.44 0
v -7.36 -14.08 0
v -7.68 -14.08 0
v -7.68 -13.76 0
v -7.36 -13.76 0

# Texture cooridinates (Count = 4)
vt 1 0
vt 1 1
vt 0 1
vt 0 0

# Normal
vn 0 0 -1

# Mesh description
g Dungeon_mesh_0002

# Faces
f 1/1/1 2/2/1 3/3/1 4/4/1
f 5/3/1 6/4/1 7/1/1 8/2/1
f 9/2/1 10/3/1 11/4/1 12/1/1
f 13/4/1 14/1/1 15/2/1 16/3/1
f 17/2/1 18/3/1 19/4/1 20/1/1
f 21/4/1 22/1/1 23/2/1 24/3/1
f 25/2/1 26/3/1 27/4/1 28/1/1
f 29/2/1 30/3/1 31/4/1 32/1/1
f 33/2/1 34/3/1 35/4/1 36/1/1
f 37/4/1 38/1/1 39/2/1 40/3/1
f 41/4/1 42/1/1 43/2/1 44/3/1
f 45/4/1 46/1/1 47/2/1 48/3/1
f 49/2/1 50/3/1 51/4/1 52/1/1
f 53/4/1 54/1/1 55/2/1 56/3/1
f 57/1/1 58/2/1 59/3/1 60/4/1
f 61/3/1 62/4/1 63/1/1 64/2/1
f 65/1/1 66/2/1 67/3/1 68/4/1
f 69/3/1 70/4/1 71/1/1 72/2/1
f 73/2/1 74/3/1 75/4/1 76/1/1
f 77/4/1 78/1/1 79/2/1 80/3/1

