# Tiled2Unity generated file. Do not modify by hand.
# Wavefront file for 'Dungeon_mesh_0010.obj'

# Vertices (Count = 48)
v -7.68 -1.28 0
v -8 -1.28 0
v -8 -0.96 0
v -7.68 -0.96 0
v -8.96 -4.48 0
v -9.28 -4.48 0
v -9.28 -4.16 0
v -8.96 -4.16 0
v -8.96 -4.8 0
v -9.28 -4.8 0
v -9.28 -4.48 0
v -8.96 -4.48 0
v -2.56 -6.08 0
v -2.88 -6.08 0
v -2.88 -5.76 0
v -2.56 -5.76 0
v -0.64 -6.4 0
v -0.96 -6.4 0
v -0.96 -6.08 0
v -0.64 -6.08 0
v -2.56 -6.72 0
v -2.88 -6.72 0
v -2.88 -6.4 0
v -2.56 -6.4 0
v -4.16 -9.599999 0
v -4.48 -9.599999 0
v -4.48 -9.28 0
v -4.16 -9.28 0
v -6.08 -9.599999 0
v -6.4 -9.599999 0
v -6.4 -9.28 0
v -6.08 -9.28 0
v -4.16 -10.24 0
v -4.48 -10.24 0
v -4.48 -9.92 0
v -4.16 -9.92 0
v -6.08 -10.24 0
v -6.4 -10.24 0
v -6.4 -9.92 0
v -6.08 -9.92 0
v -2.56 -11.52 0
v -2.88 -11.52 0
v -2.88 -11.2 0
v -2.56 -11.2 0
v -3.52 -13.44 0
v -3.84 -13.44 0
v -3.84 -13.12 0
v -3.52 -13.12 0

# Texture cooridinates (Count = 4)
vt 0 0
vt 1 0
vt 1 1
vt 0 1

# Normal
vn 0 0 -1

# Mesh description
g Dungeon_mesh_0010

# Faces
f 1/1/1 2/2/1 3/3/1 4/4/1
f 5/1/1 6/2/1 7/3/1 8/4/1
f 9/1/1 10/2/1 11/3/1 12/4/1
f 13/1/1 14/2/1 15/3/1 16/4/1
f 17/1/1 18/2/1 19/3/1 20/4/1
f 21/1/1 22/2/1 23/3/1 24/4/1
f 25/1/1 26/2/1 27/3/1 28/4/1
f 29/1/1 30/2/1 31/3/1 32/4/1
f 33/1/1 34/2/1 35/3/1 36/4/1
f 37/1/1 38/2/1 39/3/1 40/4/1
f 41/1/1 42/2/1 43/3/1 44/4/1
f 45/1/1 46/2/1 47/3/1 48/4/1

